<svg xmlns="http://www.w3.org/2000/svg" viewBox="0 0 128 128"><path d="M26.8 65.8a10.4 10.4 0 1 1-10.4-10.4h10.4v10.4zm5.2 0a10.4 10.4 0 0 1 20.8 0v26a10.4 10.4 0 1 1-20.8 0v-26z" fill="#E01E5A"/><path d="M42.4 26.8a10.4 10.4 0 1 1 10.4-10.4v10.4H42.4zm0 5.2a10.4 10.4 0 0 1 0 20.8H16.4a10.4 10.4 0 1 1 0-20.8h26z" fill="#36C5F0"/><path d="M81.6 42.4a10.4 10.4 0 1 1 10.4 10.4H81.6V42.4zm-5.2 0a10.4 10.4 0 0 1-20.8 0V16.4a10.4 10.4 0 1 1 20.8 0v26z" fill="#2EB67D"/><path d="M66 81.6a10.4 10.4 0 1 1-10.4 10.4V81.6H66zm0-5.2a10.4 10.4 0 0 1 0-20.8h26a10.4 10.4 0 1 1 0 20.8H66z" fill="#ECB22E"/></svg>